<?xml version="1.0" standalone="no"?>
<!DOCTYPE svg PUBLIC "-//W3C//DTD SVG 20010904//EN"
 "http://www.w3.org/TR/2001/REC-SVG-20010904/DTD/svg10.dtd">
<svg version="1.0" xmlns="http://www.w3.org/2000/svg"
 width="640.000000pt" height="640.000000pt" viewBox="0 0 640.000000 640.000000"
 preserveAspectRatio="xMidYMid meet">

<g transform="translate(0.000000,640.000000) scale(0.100000,-0.100000)"
fill="#000000" stroke="none">
<path d="M6124 6193 c-33 -35 -38 -93 -14 -160 11 -32 20 -67 20 -79 0 -24 24
-49 39 -40 6 4 7 14 4 23 -4 11 -2 14 8 11 8 -3 13 -11 12 -17 -3 -13 13 -15
21 -2 3 4 1 22 -4 40 -6 22 -5 31 3 31 35 0 52 154 21 198 -21 30 -80 27 -110
-5z m51 -202 c3 -5 1 -12 -5 -16 -5 -3 -10 1 -10 9 0 18 6 21 15 7z"/>
<path d="M6130 5616 c-7 -29 -10 -58 -6 -64 7 -12 56 -13 56 -1 0 5 7 9 15 9
17 0 20 17 4 22 -7 2 -13 19 -14 37 -3 29 -17 50 -36 51 -3 0 -12 -24 -19 -54z"/>
<path d="M3322 5404 c10 -10 20 -15 24 -12 3 4 -5 12 -18 18 -22 12 -22 12 -6
-6z"/>
<path d="M3170 5403 c-70 -5 -84 -18 -28 -28 43 -7 43 -7 14 -16 -16 -4 -34
-5 -39 -2 -6 3 -7 1 -4 -4 11 -18 167 -41 167 -25 0 5 24 13 53 16 42 5 63 2
110 -17 31 -13 60 -27 63 -30 3 -3 12 -3 20 0 12 4 11 8 -3 19 -16 12 -13 12
16 4 19 -5 37 -8 39 -5 6 6 -67 35 -90 35 -11 0 -28 5 -39 10 -10 6 -44 11
-74 11 -30 1 -55 5 -55 10 0 8 -67 30 -85 27 -5 -1 -35 -3 -65 -5z"/>
<path d="M2970 5376 c0 -19 -11 -21 -28 -4 -9 9 -15 9 -24 0 -10 -10 -8 -17 9
-33 16 -16 28 -20 52 -14 33 7 38 14 19 33 -9 9 -4 9 23 2 42 -12 52 -13 45
-1 -3 4 -18 11 -33 14 -16 3 -36 9 -45 12 -13 5 -18 2 -18 -9z"/>
<path d="M2687 5346 c-7 -19 18 -40 38 -32 19 7 20 26 0 26 -8 0 -15 5 -15 10
0 15 -17 12 -23 -4z"/>
<path d="M2870 5350 c0 -5 4 -10 9 -10 6 0 13 5 16 10 3 6 -1 10 -9 10 -9 0
-16 -4 -16 -10z"/>
<path d="M3325 5332 c-16 -2 -34 -8 -39 -13 -6 -5 -22 -9 -37 -9 -15 0 -30 -4
-33 -9 -3 -5 -37 -3 -78 5 -40 8 -85 14 -100 14 -29 0 -37 -17 -17 -37 8 -8 8
-13 -1 -18 -8 -5 -8 -10 1 -21 9 -11 6 -16 -16 -24 -14 -5 -35 -10 -46 -10
-31 0 -99 39 -99 56 0 12 -6 15 -27 10 -18 -4 -23 -3 -15 2 10 7 2 12 -27 20
-23 5 -41 6 -41 1 0 -5 5 -9 10 -9 6 0 10 -4 10 -10 0 -5 -6 -10 -14 -10 -7 0
-16 -8 -19 -18 -3 -16 -13 -19 -56 -18 -41 2 -50 -1 -46 -12 3 -8 -10 -3 -29
11 -32 25 -35 26 -65 11 -17 -9 -31 -20 -31 -26 0 -6 6 -5 16 3 13 10 17 10
25 -2 5 -8 9 -20 9 -27 0 -7 12 -17 26 -22 43 -17 51 -11 17 11 -18 12 -33 27
-33 35 0 19 10 17 40 -6 14 -11 31 -20 38 -20 6 0 12 -5 12 -11 0 -7 11 -9 28
-5 15 3 21 3 14 0 -6 -3 -9 -10 -6 -15 4 -6 10 -6 18 0 13 11 17 10 123 -23
61 -19 150 -19 178 0 15 11 16 14 4 14 -9 0 -26 11 -38 24 -22 23 -22 24 -3
19 11 -2 31 3 45 12 26 17 67 13 67 -6 0 -17 66 -6 170 29 8 2 28 6 44 8 17 3
33 10 37 16 5 7 26 11 52 9 25 -1 48 2 52 8 3 6 2 11 -3 11 -6 0 -13 8 -17 18
-5 14 -4 15 6 5 7 -7 20 -13 28 -13 10 0 8 5 -8 17 -28 19 -82 30 -126 25z
m58 -19 c-7 -2 -19 -2 -25 0 -7 3 -2 5 12 5 14 0 19 -2 13 -5z m-420 -147 c4
-10 0 -12 -14 -9 -22 6 -26 23 -5 23 8 0 16 -6 19 -14z"/>
<path d="M2800 5323 c8 -2 24 -9 35 -14 23 -11 118 -29 124 -24 2 2 -10 7 -25
10 -16 4 -36 9 -44 12 -8 4 -23 5 -32 4 -10 -1 -18 3 -18 8 0 6 -12 11 -27 10
-16 0 -21 -3 -13 -6z"/>
<path d="M4015 5297 c15 -13 16 -16 5 -17 -12 0 -13 -2 -1 -9 10 -7 10 -10 1
-16 -8 -5 -16 -1 -22 9 -10 18 -43 22 -53 6 -3 -5 -15 -10 -26 -10 -10 0 -19
5 -19 10 0 6 -5 10 -10 10 -7 0 -7 -6 0 -20 6 -10 9 -23 9 -27 -1 -4 1 -16 6
-26 4 -10 4 -21 0 -25 -4 -4 -10 -2 -12 4 -2 7 -13 10 -24 7 -10 -3 -26 0 -34
7 -8 6 -19 9 -24 6 -5 -4 -13 0 -18 8 -12 21 -102 48 -136 40 l-30 -6 38 -22
c21 -11 40 -27 43 -34 5 -15 -50 -8 -146 19 -41 12 -71 15 -85 10 -12 -5 -40
-7 -62 -5 -25 2 -34 0 -25 -6 11 -7 7 -10 -13 -15 -15 -4 -34 -4 -43 -1 -21 8
-84 -3 -84 -15 0 -8 84 -51 120 -61 7 -3 10 -7 5 -10 -6 -3 -37 3 -70 14 -47
15 -77 18 -135 14 -86 -6 -153 -23 -145 -37 4 -5 -3 -9 -14 -9 -10 0 -21 -5
-23 -10 -2 -6 -14 -11 -28 -12 -14 -1 -31 -6 -39 -12 -12 -9 -13 -7 -8 7 4 11
2 17 -8 17 -8 0 -15 -3 -15 -7 0 -7 -160 -10 -215 -4 -19 2 -19 2 -2 16 18 13
18 14 -2 24 -11 6 -34 11 -51 11 -17 0 -40 5 -51 10 -11 7 -19 7 -19 1 0 -5 6
-12 13 -14 8 -4 6 -6 -4 -6 -9 -1 -24 8 -34 19 -18 19 -17 20 5 20 l23 0 -24
24 c-23 23 -137 80 -140 70 -1 -2 -2 -8 -3 -13 0 -5 -14 -25 -31 -45 -16 -20
-31 -45 -31 -56 -2 -27 19 -20 26 9 l5 23 27 -21 c15 -12 41 -21 61 -21 24 0
46 -9 66 -26 35 -29 42 -50 11 -34 -29 16 -24 5 7 -15 22 -15 47 -18 144 -17
104 1 118 0 134 -18 21 -24 19 -24 -75 -10 -78 11 -131 4 -123 -16 3 -9 -2
-14 -13 -15 -14 -1 -13 -3 6 -9 17 -6 0 -8 -55 -9 -46 -1 -86 4 -92 10 -6 6
-47 12 -92 13 -66 3 -81 1 -81 -12 0 -10 -7 -13 -21 -9 -15 4 -19 2 -15 -9 4
-9 -6 -19 -29 -28 -36 -15 -45 -30 -22 -39 6 -3 -3 -6 -20 -6 -22 -1 -33 -6
-33 -16 0 -8 -4 -15 -8 -15 -15 0 -49 -34 -56 -57 -6 -18 -4 -21 16 -16 22 4
22 4 4 -11 -11 -9 -23 -16 -26 -16 -9 0 -53 -80 -47 -86 2 -3 12 2 20 11 20
19 33 20 17 0 -6 -8 -9 -18 -6 -23 3 -5 -7 -15 -22 -23 -48 -25 -72 -51 -67
-73 3 -12 7 -43 9 -71 3 -40 0 -52 -15 -63 -23 -16 -62 -99 -54 -112 4 -7 14
-6 26 1 29 15 36 3 12 -24 -11 -12 -26 -44 -33 -71 -12 -45 -12 -50 5 -62 17
-12 17 -15 3 -31 -22 -26 -27 -55 -33 -209 -6 -142 2 -188 26 -154 8 11 9 7 4
-20 -8 -44 -15 -138 -17 -210 -1 -102 -20 -253 -30 -239 -14 23 -66 -46 -74
-98 -12 -78 15 -173 52 -187 9 -4 18 -5 20 -3 7 7 24 110 24 142 0 18 7 39 17
46 15 13 16 11 10 -11 -3 -14 -2 -31 2 -39 7 -11 11 -9 20 8 8 13 11 86 11
208 -1 338 26 518 86 593 7 8 13 20 14 25 1 6 8 9 16 7 14 -3 17 7 15 44 -1
11 5 26 13 33 9 8 13 17 10 22 -3 5 0 9 6 9 6 0 5 9 -4 23 -20 31 -22 74 -11
207 4 47 14 97 21 112 12 24 20 27 71 30 40 2 57 7 55 16 -1 8 11 12 38 12 22
0 40 5 40 10 0 6 21 10 46 10 25 0 55 5 67 12 12 6 62 13 112 15 49 3 92 9 93
14 2 5 15 9 28 9 17 0 31 -10 45 -34 19 -33 44 -51 58 -42 14 9 10 -39 -5 -62
-11 -17 -13 -27 -5 -35 7 -7 12 -5 17 6 9 24 23 21 17 -3 -7 -28 12 -25 35 5
12 16 30 25 47 25 33 0 68 18 60 31 -4 5 0 9 8 9 8 0 17 -7 21 -15 7 -18 39
-19 66 -3 25 16 54 1 58 -31 3 -16 10 -21 32 -21 16 0 32 5 35 10 5 8 11 7 20
0 9 -8 20 -8 32 -2 10 5 52 12 93 15 41 3 86 8 100 12 14 4 43 10 65 12 22 3
43 11 47 17 5 7 8 3 8 -8 0 -18 1 -18 13 -4 6 9 23 18 37 20 14 2 25 10 25 18
0 15 5 17 57 19 16 1 28 8 31 19 4 16 4 16 12 -2 5 -12 3 -21 -6 -27 -8 -5 -9
-9 -3 -9 5 0 19 6 29 14 11 8 24 12 30 10 6 -3 32 16 58 40 27 26 49 41 53 35
4 -7 12 -5 22 4 11 9 35 13 65 12 34 -2 47 1 47 11 0 8 9 14 19 14 14 0 18 -5
14 -18 -4 -16 0 -18 26 -14 18 2 31 10 31 18 0 21 28 17 39 -5 9 -15 20 -18
63 -16 94 6 125 -47 115 -195 -3 -47 -2 -93 3 -100 5 -8 6 -18 4 -22 -3 -4 -7
-43 -9 -85 -2 -43 -5 -91 -8 -107 -3 -22 0 -30 14 -33 11 -3 19 -11 19 -18 0
-6 9 -20 21 -31 34 -31 49 -70 65 -167 30 -188 35 -260 39 -606 3 -195 8 -357
12 -360 3 -3 4 4 1 16 -3 12 1 31 8 42 11 15 13 39 9 91 -4 56 -2 74 10 86 13
14 15 13 15 -9 0 -40 9 -55 30 -50 36 9 53 114 29 181 -12 34 -29 34 -29 1 0
-10 -5 -19 -10 -19 -7 0 -9 37 -4 113 6 99 4 118 -12 153 -21 43 -25 151 -6
163 6 3 12 29 14 56 1 28 6 55 11 62 10 14 -2 83 -14 83 -5 0 -9 23 -9 50 0
28 -4 50 -10 50 -5 0 -10 6 -10 14 0 9 7 12 20 9 23 -6 36 31 26 75 -13 53
-16 78 -19 160 -2 46 0 85 5 88 5 4 7 22 4 43 -3 20 -5 51 -6 69 0 17 -5 32
-11 32 -5 0 -7 -6 -4 -12 4 -7 -1 -4 -9 6 -9 11 -16 25 -16 30 0 6 4 5 9 -3 7
-11 10 -9 15 7 5 15 0 28 -16 44 -13 13 -26 22 -30 21 -4 -2 -5 3 -3 10 3 7
-5 17 -17 22 -13 6 -22 13 -20 18 4 11 -21 36 -30 30 -5 -2 -8 5 -8 16 0 16 6
21 24 21 14 0 28 -5 31 -10 7 -11 65 -43 65 -36 0 3 -10 14 -22 26 -25 23 -19
37 9 22 17 -9 19 -7 17 19 -1 16 -7 36 -14 44 -7 8 -10 21 -7 29 3 7 1 18 -3
22 -7 7 -17 124 -21 237 0 10 -11 22 -24 27 -27 10 -66 46 -58 53 8 8 -34 27
-42 19 -5 -4 -5 -1 -1 6 5 8 2 21 -7 30 -8 9 -17 34 -21 55 -4 20 -11 37 -16
37 -5 0 -11 8 -14 18 -3 9 -20 23 -38 31 -18 8 -39 19 -47 25 -16 12 -91 15
-91 4 0 -5 -8 -8 -17 -8 -14 0 -15 2 -5 9 10 6 7 10 -11 15 -14 3 -33 9 -44
12 -16 6 -16 5 2 -9z m-877 -194 c-10 -2 -28 -2 -40 0 -13 2 -5 4 17 4 22 1
32 -1 23 -4z m1142 -59 c0 -2 -9 -4 -20 -4 -11 0 -20 4 -20 9 0 5 9 7 20 4 11
-3 20 -7 20 -9z m-1420 -54 c0 -5 -7 -10 -15 -10 -8 0 -15 5 -15 10 0 6 7 10
15 10 8 0 15 -4 15 -10z m1645 -1200 c3 -5 1 -10 -4 -10 -6 0 -11 5 -11 10 0
6 2 10 4 10 3 0 8 -4 11 -10z"/>
<path d="M4115 5300 c3 -5 8 -10 11 -10 2 0 4 5 4 10 0 6 -5 10 -11 10 -5 0
-7 -4 -4 -10z"/>
<path d="M2623 5294 c3 -4 17 -8 29 -10 13 -2 33 -6 46 -10 12 -3 22 -2 22 4
0 5 -14 12 -31 16 -41 8 -74 8 -66 0z"/>
<path d="M2975 5270 c3 -5 8 -10 11 -10 2 0 4 5 4 10 0 6 -5 10 -11 10 -5 0
-7 -4 -4 -10z"/>
<path d="M2530 5201 c0 -6 5 -13 10 -16 6 -3 10 1 10 9 0 9 -4 16 -10 16 -5 0
-10 -4 -10 -9z"/>
<path d="M2425 5090 c11 -5 27 -9 35 -9 9 0 8 4 -5 9 -11 5 -27 9 -35 9 -9 0
-8 -4 5 -9z"/>
<path d="M2301 5059 c-20 -21 -21 -21 -56 -5 -20 10 -38 16 -40 14 -7 -7 21
-34 48 -46 52 -23 111 -8 70 18 -16 10 -16 11 2 6 103 -27 125 -29 144 -17 12
8 12 12 -2 25 -20 20 -38 21 -31 1 8 -19 -10 -19 -39 -1 -42 26 -74 28 -96 5z"/>
<path d="M2190 5000 c-12 -8 -11 -10 8 -10 12 0 22 5 22 10 0 13 -11 13 -30 0z"/>
<path d="M2083 4960 c-18 -11 -33 -26 -33 -34 0 -26 34 -23 71 6 23 17 49 28
69 28 18 0 29 4 25 10 -11 18 -98 11 -132 -10z"/>
<path d="M2036 4844 c-21 -14 -44 -23 -53 -20 -9 4 -24 -2 -35 -14 -10 -11
-14 -20 -8 -20 5 0 10 -4 10 -10 0 -5 -9 -10 -21 -10 -16 0 -19 -4 -14 -20 4
-13 2 -20 -6 -20 -7 0 -9 -3 -6 -7 4 -3 0 -15 -10 -25 -15 -16 -15 -18 0 -18
9 0 21 9 27 20 6 11 7 20 3 20 -4 0 4 10 16 21 16 15 25 18 30 10 6 -8 16 -7
42 4 19 9 24 14 12 11 -28 -5 -28 -2 -1 29 16 18 25 22 34 14 16 -13 39 25 27
46 -7 12 -15 11 -47 -11z"/>
<path d="M1960 4695 c0 -8 4 -15 9 -15 5 0 14 7 21 15 10 13 9 15 -9 15 -12 0
-21 -6 -21 -15z"/>
<path d="M4500 4529 c0 -5 5 -7 10 -4 6 3 10 8 10 11 0 2 -4 4 -10 4 -5 0 -10
-5 -10 -11z"/>
<path d="M1854 4495 c-9 -14 -14 -29 -10 -33 4 -3 11 0 16 8 5 8 12 11 16 7 4
-4 -5 -20 -19 -35 -26 -28 -36 -62 -18 -62 5 0 12 8 16 19 3 10 17 31 30 47
29 33 31 44 10 44 -9 0 -12 6 -9 15 10 25 -14 17 -32 -10z"/>
<path d="M4522 4491 c7 -11 16 -17 20 -15 5 3 2 12 -6 20 -21 20 -28 17 -14
-5z"/>
<path d="M4540 4450 c0 -5 7 -10 16 -10 8 0 12 5 9 10 -3 6 -10 10 -16 10 -5
0 -9 -4 -9 -10z"/>
<path d="M3048 4403 c7 -3 16 -2 19 1 4 3 -2 6 -13 5 -11 0 -14 -3 -6 -6z"/>
<path d="M4571 4375 c0 -16 4 -37 9 -45 8 -12 10 -11 9 5 -1 11 -5 31 -9 45
-8 24 -8 24 -9 -5z"/>
<path d="M1884 4355 c-4 -14 -4 -29 0 -32 3 -4 6 3 6 13 0 11 5 25 12 32 9 9
9 12 0 12 -6 0 -14 -11 -18 -25z"/>
<path d="M1846 4323 c-6 -14 -5 -15 5 -6 7 7 10 15 7 18 -3 3 -9 -2 -12 -12z"/>
<path d="M2710 4304 c0 -8 5 -12 10 -9 6 3 10 10 10 16 0 5 -4 9 -10 9 -5 0
-10 -7 -10 -16z"/>
<path d="M4557 4287 c2 -18 0 -48 -6 -67 l-11 -35 4 45 c2 25 2 37 -1 27 -2
-9 -9 -14 -15 -11 -7 4 -8 2 -4 -5 4 -6 8 -53 8 -104 l0 -92 13 50 c8 33 13
41 14 25 0 -15 5 -30 10 -35 5 -6 11 -19 14 -30 4 -17 5 -16 6 5 1 20 3 22 11
10 7 -10 9 23 8 100 0 63 -3 102 -5 85 -3 -16 -8 -34 -13 -39 -11 -12 -24 37
-18 69 3 14 0 26 -8 29 -9 3 -11 -4 -7 -27z"/>
<path d="M1851 4279 c-11 -18 -11 -23 1 -30 10 -7 11 -12 1 -29 -20 -31 -15
-45 7 -20 13 14 20 37 20 62 0 43 -9 48 -29 17z"/>
<path d="M1862 4115 c-15 -33 -15 -35 3 -35 10 0 15 10 15 30 0 37 -3 37 -18
5z"/>
<path d="M1847 4049 c-3 -11 -3 -28 0 -37 6 -13 8 -13 14 4 11 27 11 54 0 54
-5 0 -11 -9 -14 -21z"/>
<path d="M4558 4004 c-8 -15 -2 -64 10 -76 9 -9 12 -5 11 18 -1 35 -14 71 -21
58z"/>
<path d="M3525 3900 c3 -5 8 -10 11 -10 2 0 4 5 4 10 0 6 -5 10 -11 10 -5 0
-7 -4 -4 -10z"/>
<path d="M4516 3875 c-4 -16 -3 -32 3 -38 15 -15 24 14 13 43 l-9 24 -7 -29z"/>
<path d="M4556 3875 c-3 -9 -6 -26 -5 -38 1 -16 4 -12 10 12 10 34 6 55 -5 26z"/>
<path d="M2956 3871 c-4 -5 -3 -16 0 -25 5 -12 2 -15 -10 -10 -9 4 -25 -5 -41
-22 -23 -25 -35 -29 -90 -31 -43 -2 -66 1 -74 11 -9 10 -23 11 -64 4 -28 -6
-73 -8 -99 -5 -26 3 -61 2 -77 -3 -22 -6 -31 -5 -31 3 0 8 -3 7 -9 -2 -6 -9
-32 -14 -78 -16 -38 -1 -78 -7 -89 -13 -10 -6 -45 -23 -78 -38 -42 -19 -54
-29 -45 -35 10 -6 11 -9 2 -9 -7 0 -13 -4 -13 -10 0 -5 6 -7 14 -4 7 3 16 -2
20 -11 6 -16 -16 -31 -31 -22 -5 3 -13 -6 -20 -19 -7 -15 -8 -26 -1 -30 5 -3
0 -16 -13 -30 -19 -20 -21 -30 -14 -71 9 -61 9 -63 0 -95 -5 -21 -3 -29 9 -33
52 -17 52 -17 31 -25 -16 -7 -13 -9 15 -9 19 0 44 6 54 14 11 8 31 15 46 15
14 0 33 9 43 20 17 20 61 27 71 11 3 -5 14 -7 24 -5 9 3 26 -2 37 -10 19 -15
19 -15 -12 -22 -18 -3 -39 -14 -48 -24 -16 -17 -16 -19 3 -31 12 -7 18 -19 14
-27 -4 -12 1 -14 26 -9 17 4 34 2 37 -3 3 -5 19 -5 38 1 41 12 60 12 52 0 -3
-5 -1 -12 4 -15 5 -4 12 -2 15 2 3 5 29 3 57 -4 49 -13 77 -13 207 1 38 4 42
2 42 -17 l0 -21 23 20 c12 11 33 24 47 28 41 13 89 55 106 94 9 20 22 48 30
63 8 14 14 33 14 42 0 8 6 19 13 23 6 4 19 22 27 38 21 44 79 89 64 50 -4 -10
0 -15 15 -15 12 0 23 1 25 3 18 10 102 -120 112 -173 11 -62 54 -140 79 -140
6 0 23 -17 36 -37 14 -21 36 -40 52 -44 24 -6 29 -3 43 22 8 16 12 34 8 40
-11 18 17 28 43 16 12 -5 23 -14 23 -19 0 -4 5 -8 10 -8 6 0 10 6 10 14 0 8 7
16 15 19 16 7 29 -8 21 -22 -6 -9 35 -24 43 -16 2 3 -1 5 -7 5 -7 0 -12 4 -12
8 0 10 30 9 46 -1 15 -9 127 -7 139 3 6 4 37 11 70 14 79 9 95 15 95 32 0 8
11 19 25 24 14 5 25 16 25 25 0 17 35 20 72 6 13 -5 46 -6 74 -4 l52 5 -1 42
c0 22 3 63 7 89 5 35 4 54 -7 70 -17 27 -31 84 -28 114 2 17 -2 21 -21 17 -13
-2 -17 -2 -10 2 20 9 15 34 -5 27 -17 -6 -17 -6 -1 10 9 9 22 17 28 17 6 0 8
5 5 10 -3 6 -15 10 -26 10 -10 0 -19 5 -19 11 0 5 -4 8 -9 5 -9 -6 -171 37
-206 55 -17 8 -136 14 -210 11 -71 -4 -85 -1 -85 13 0 18 -17 20 -23 3 -3 -10
-7 -10 -20 0 -13 11 -17 10 -27 -9 -7 -13 -15 -17 -19 -11 -10 17 -77 25 -101
12 -18 -10 -24 -9 -31 1 -7 10 -11 11 -16 3 -12 -18 -114 5 -110 25 1 9 -6 17
-18 18 -11 1 -36 6 -57 11 -33 9 -37 7 -40 -12 -5 -26 1 -58 10 -52 4 2 7 -25
6 -60 -1 -35 3 -64 7 -64 5 0 9 -4 9 -10 0 -5 -15 -1 -32 10 -18 11 -47 20
-64 20 -42 0 -63 19 -70 61 -5 29 -2 41 15 58 11 11 21 30 21 41 0 22 -24 27
-37 8 -4 -7 -14 -13 -20 -14 -46 -4 -46 -3 -33 -19 18 -22 5 -30 -25 -17 -14
7 -22 17 -19 25 8 23 -67 49 -80 28z m644 -81 c0 -13 -11 -13 -30 0 -12 8 -11
10 8 10 12 0 22 -4 22 -10z m-1380 -325 c0 -8 -9 -15 -19 -15 -29 0 -35 18 -9
23 13 2 24 5 26 6 1 0 2 -6 2 -14z m287 -101 c-3 -3 -12 -4 -19 -1 -8 3 -5 6
6 6 11 1 17 -2 13 -5z"/>
<path d="M3450 3840 c0 -5 5 -10 10 -10 6 0 10 5 10 10 0 6 -4 10 -10 10 -5 0
-10 -4 -10 -10z"/>
<path d="M1864 3723 c-1 -44 -6 -60 -22 -73 -18 -15 -19 -21 -9 -53 26 -83 62
-21 52 89 -9 90 -20 110 -21 37z"/>
<path d="M4552 3725 c-7 -14 -12 -36 -12 -48 0 -13 -4 -27 -8 -32 -4 -6 -14
-27 -21 -48 -19 -57 -1 -69 38 -26 27 29 31 40 30 89 -1 30 -5 63 -8 73 -6 17
-8 16 -19 -8z"/>
<path d="M1760 3486 c0 -14 5 -28 10 -31 6 -3 10 5 10 19 0 14 -4 28 -10 31
-6 3 -10 -5 -10 -19z"/>
<path d="M4577 3468 c3 -18 10 -44 14 -58 6 -21 8 -22 9 -5 1 11 3 37 5 58 3
31 1 37 -15 37 -17 0 -19 -5 -13 -32z"/>
<path d="M1751 3408 c0 -28 2 -30 9 -13 12 28 12 45 0 45 -5 0 -10 -15 -9 -32z"/>
<path d="M3933 3203 c9 -2 23 -2 30 0 6 3 -1 5 -18 5 -16 0 -22 -2 -12 -5z"/>
<path d="M1923 3043 c-12 -33 -7 -73 8 -73 14 0 22 47 12 77 l-9 27 -11 -31z"/>
<path d="M3538 3006 c-10 -7 -18 -18 -18 -25 0 -6 -8 -11 -18 -11 -28 0 -34
-11 -14 -26 16 -13 16 -14 -4 -20 -12 -3 -27 -16 -34 -28 -14 -26 -4 -49 41
-95 24 -24 43 -73 69 -178 10 -38 14 -43 40 -43 25 0 41 -14 101 -84 39 -46
77 -96 85 -112 9 -16 25 -39 37 -52 18 -20 19 -24 7 -32 -10 -7 -11 -10 -2
-10 6 0 12 -3 12 -7 0 -9 -113 -4 -120 6 -3 3 -14 13 -24 21 -18 14 -19 13
-13 -2 3 -10 2 -18 -3 -18 -5 0 -7 -6 -4 -13 3 -8 -2 -19 -10 -26 -12 -10 -15
-7 -21 17 -6 29 -45 72 -65 72 -6 0 -10 -8 -10 -19 0 -16 -6 -13 -37 15 -20
19 -40 34 -44 34 -9 0 1 49 12 56 5 3 9 14 9 24 0 11 9 34 20 52 11 18 20 36
20 40 0 12 -54 35 -73 30 -9 -2 -20 4 -23 12 -3 9 -10 14 -14 11 -4 -3 -10 5
-14 18 -5 22 -56 54 -56 36 0 -13 -193 -7 -202 6 -5 6 -18 4 -36 -7 -16 -10
-42 -16 -58 -15 -26 2 -29 -1 -32 -32 -2 -19 2 -37 9 -41 8 -6 4 -13 -13 -24
-23 -15 -27 -14 -74 9 -36 18 -57 22 -77 17 -31 -8 -32 -17 -4 -56 28 -39 27
-89 -2 -119 -19 -21 -20 -25 -7 -30 18 -7 20 -16 7 -36 -8 -12 -12 -12 -24 -3
-15 13 -53 11 -147 -5 -36 -7 -50 -16 -75 -49 -30 -40 -80 -70 -90 -54 -3 5 4
26 15 47 11 21 20 44 20 52 0 16 43 84 73 113 9 10 17 23 17 28 0 6 6 10 14
10 7 0 19 12 25 28 15 34 73 102 89 102 6 0 18 23 26 50 15 51 56 152 82 204
10 20 12 32 4 40 -5 5 -10 20 -10 32 0 22 -24 39 -41 28 -6 -3 -16 0 -24 6
-12 10 -23 5 -57 -24 -44 -38 -58 -44 -59 -23 0 6 -4 2 -9 -10 -5 -13 -14 -23
-20 -23 -5 0 -10 -7 -10 -15 0 -8 -4 -15 -9 -15 -5 0 -11 -10 -13 -22 -2 -17
-9 -22 -25 -20 -15 2 -23 -2 -23 -12 0 -19 -30 -36 -63 -36 -14 0 -27 -7 -31
-15 -3 -9 0 -15 9 -15 28 0 15 -20 -26 -38 -27 -12 -37 -21 -28 -25 9 -4 10
-8 4 -14 -29 -23 -46 -65 -40 -101 6 -36 6 -36 -11 -17 -15 19 -16 16 -11 -52
5 -64 4 -73 -11 -73 -11 0 -13 -3 -6 -8 17 -11 16 -101 -1 -119 -9 -9 -15 -34
-15 -63 0 -27 -5 -52 -10 -55 -6 -4 -7 -11 -4 -17 4 -6 1 -14 -6 -18 -7 -4
-12 -26 -12 -49 1 -41 -8 -53 -41 -58 -15 -2 -17 4 -15 38 3 39 1 42 -26 46
-17 2 -35 -2 -47 -13 -11 -9 -19 -12 -19 -6 0 10 23 40 62 83 22 24 8 72 -19
67 -13 -2 -18 3 -17 19 0 14 -7 25 -17 28 -10 3 -16 12 -13 19 5 14 -21 82
-35 90 -5 3 -8 14 -6 24 1 9 0 11 -2 4 -3 -7 -9 -10 -14 -6 -16 9 -47 -6 -52
-26 -3 -11 -1 -20 4 -20 15 0 10 -22 -8 -36 -16 -11 -13 -12 20 -9 36 3 50 -8
23 -18 -9 -4 -14 -23 -14 -60 0 -30 -6 -65 -12 -77 -17 -32 -4 -37 23 -9 22
24 57 37 57 21 0 -4 -5 -13 -12 -20 -7 -7 -11 -33 -9 -62 2 -40 0 -49 -12 -44
-8 3 -17 -2 -20 -10 -4 -10 -1 -16 9 -16 12 0 15 -7 11 -27 -11 -56 20 -66 46
-14 12 25 12 29 -2 39 -14 9 -14 11 2 17 12 5 22 2 31 -10 11 -15 10 -21 -3
-37 -9 -10 -14 -31 -13 -47 2 -16 -1 -32 -7 -36 -17 -10 -13 -43 7 -54 9 -6
12 -11 5 -11 -8 0 -8 -8 0 -32 14 -39 25 -48 45 -40 12 4 14 -2 9 -37 -5 -39
-3 -42 14 -38 15 4 19 0 19 -19 0 -15 6 -24 15 -24 8 0 15 -9 15 -20 0 -11 7
-37 15 -57 12 -29 13 -38 3 -45 -10 -6 -10 -8 0 -8 6 0 12 -8 12 -17 0 -9 6
-24 13 -32 24 -29 34 -65 30 -104 -7 -73 17 -463 36 -567 34 -186 83 -336 167
-502 20 -40 46 -91 57 -113 11 -22 42 -73 69 -112 l49 -73 499 0 499 0 46 68
c116 171 210 356 285 564 9 26 21 53 27 60 6 7 13 29 16 48 3 19 17 80 32 135
15 55 29 118 32 140 2 22 12 105 23 185 16 126 29 261 34 365 1 26 4 30 27 27
22 -3 28 2 34 25 4 17 2 29 -4 31 -6 2 -11 12 -11 23 0 10 -4 19 -9 19 -5 0
-9 6 -8 13 1 30 -4 47 -14 47 -13 0 -33 20 -41 41 -4 9 0 29 9 45 8 16 15 47
15 69 -1 27 2 35 8 25 11 -18 12 -17 33 45 23 69 32 141 18 149 -7 5 -11 -3
-11 -21 0 -27 0 -27 -19 -8 -11 11 -22 40 -25 65 l-5 45 12 -37 c16 -49 27
-58 27 -20 0 16 5 32 11 34 12 4 15 55 6 113 l-7 40 13 -37 c6 -20 15 -40 20
-44 10 -10 9 40 -2 69 -13 34 -21 115 -11 119 11 4 -7 48 -21 48 -8 0 -8 -5 2
-16 10 -13 10 -17 -2 -24 -11 -7 -11 -12 -1 -22 21 -21 13 -31 -13 -14 -28 19
-75 12 -75 -10 0 -8 -7 -14 -15 -14 -9 0 -12 6 -9 15 4 10 0 15 -14 15 -11 0
-22 8 -25 20 -4 14 -10 18 -22 14 -12 -5 -16 -2 -14 12 1 10 -1 35 -6 54 -5
19 -9 40 -10 45 -4 32 -27 67 -40 61 -8 -3 -15 -1 -15 4 0 14 -58 12 -62 -2
-5 -14 -58 -2 -58 14 0 18 -42 49 -61 43 -9 -3 -23 0 -30 8 -8 7 -22 16 -33
20 -14 6 -16 10 -7 21 15 18 -1 30 -29 21 -11 -4 -20 -2 -20 4 0 6 7 11 15 11
24 0 17 25 -10 40 -14 7 -25 17 -25 22 0 5 -12 13 -26 18 -14 6 -22 14 -19 20
3 5 -1 10 -10 10 -9 0 -13 5 -10 10 3 6 -1 10 -9 10 -9 0 -16 6 -16 14 0 7 -9
16 -20 19 -12 3 -20 14 -20 25 0 11 -7 22 -15 26 -8 3 -15 12 -15 21 0 18 -19
19 -42 1z m-304 -381 c-22 -17 -34 -19 -34 -6 0 5 8 12 18 14 32 9 36 7 16 -8z
m1096 -255 c0 -5 -2 -10 -4 -10 -3 0 -8 5 -11 10 -3 6 -1 10 4 10 6 0 11 -4
11 -10z m-108 -31 c32 -33 32 -48 0 -28 -20 13 -48 59 -35 59 3 0 19 -14 35
-31z m-712 1 c0 -5 -7 -10 -16 -10 -8 0 -12 5 -9 10 3 6 10 10 16 10 5 0 9 -4
9 -10z m662 -62 c-9 -9 -12 -7 -12 12 0 19 3 21 12 12 9 -9 9 -15 0 -24z m150
-23 c3 -13 1 -22 -3 -19 -5 3 -9 0 -9 -7 0 -8 -4 -8 -15 1 -14 12 -14 15 1 31
21 24 21 24 26 -6z m-1282 -104 c0 -5 -7 -14 -15 -21 -16 -14 -18 -10 -9 14 6
17 24 22 24 7z m-74 -26 c-8 -8 -25 -15 -38 -15 -22 1 -22 1 -4 15 11 8 28 15
39 15 16 0 17 -2 3 -15z m384 5 c0 -5 -7 -10 -16 -10 -8 0 -12 5 -9 10 3 6 10
10 16 10 5 0 9 -4 9 -10z m-503 -35 c-4 -8 -14 -15 -23 -15 -16 0 -16 2 1 20
20 22 31 20 22 -5z m418 15 c3 -5 -1 -10 -10 -10 -9 0 -13 5 -10 10 3 6 8 10
10 10 2 0 7 -4 10 -10z m-78 -26 c-3 -3 -12 -4 -19 -1 -8 3 -5 6 6 6 11 1 17
-2 13 -5z m50 0 c-3 -3 -12 -4 -19 -1 -8 3 -5 6 6 6 11 1 17 -2 13 -5z m896
-57 c4 3 7 -9 6 -28 0 -21 -3 -28 -7 -18 -4 9 -15 15 -24 13 -14 -2 -18 5 -18
26 0 16 -3 37 -6 47 -4 10 4 3 18 -14 14 -18 28 -30 31 -26z m134 -14 c-3 -10
-5 -4 -5 12 0 17 2 24 5 18 2 -7 2 -21 0 -30z m-1912 -63 l28 -29 -24 -20
c-31 -26 -42 -26 -34 -1 3 11 2 20 -3 20 -5 0 -9 13 -8 30 1 37 5 37 41 0z
m1735 -6 c0 -8 -4 -12 -10 -9 -5 3 -10 13 -10 21 0 8 5 12 10 9 6 -3 10 -13
10 -21z m-1160 -44 c0 -5 -4 -10 -10 -10 -5 0 -10 5 -10 10 0 6 5 10 10 10 6
0 10 -4 10 -10z m-47 -16 c2 6 3 3 2 -6 -2 -10 1 -21 6 -24 5 -3 7 -10 4 -15
-4 -5 3 -9 15 -9 20 0 20 -1 4 -25 -9 -14 -22 -25 -28 -24 -6 1 -24 -3 -39 -9
-16 -7 -37 -12 -48 -12 -10 0 -19 -4 -19 -10 0 -5 -5 -10 -12 -10 -6 0 -20 -8
-31 -17 -19 -17 -20 -17 -15 5 4 12 3 20 -2 17 -4 -3 -15 7 -25 21 -10 15 -22
23 -31 20 -8 -3 -14 0 -14 7 1 17 22 41 39 45 8 2 19 9 25 17 6 7 22 15 36 17
14 2 24 9 23 15 -2 8 13 8 52 -2 39 -9 55 -9 58 -1z m-648 -4 c3 -5 1 -10 -4
-10 -6 0 -11 5 -11 10 0 6 2 10 4 10 3 0 8 -4 11 -10z m705 -20 c0 -5 -7 -10
-16 -10 -8 0 -12 5 -9 10 3 6 10 10 16 10 5 0 9 -4 9 -10z m-240 -151 c0 -5
-7 -9 -15 -9 -15 0 -20 12 -9 23 8 8 24 -1 24 -14z m-250 -49 c0 -5 -5 -10
-11 -10 -5 0 -7 5 -4 10 3 6 8 10 11 10 2 0 4 -4 4 -10z m1173 -152 c12 -7 24
-14 26 -15 7 -4 -65 -69 -84 -77 -19 -7 -19 -8 -2 -17 9 -6 14 -15 11 -21 -4
-6 0 -14 7 -19 9 -6 1 -7 -24 -3 -37 6 -38 6 -31 -20 6 -26 5 -26 -20 -15 -17
8 -26 20 -26 36 0 26 -38 47 -67 36 -13 -5 -15 -2 -10 17 4 16 0 28 -16 41
l-22 18 30 1 c62 2 120 13 159 30 23 10 42 19 44 19 1 1 12 -5 25 -11z m-799
-5 c4 -5 22 -9 39 -11 18 -1 49 -4 70 -6 20 -2 37 0 37 6 0 13 63 6 67 -8 2
-6 -10 -8 -32 -6 -26 3 -36 0 -41 -12 -9 -22 2 -32 19 -18 17 14 28 6 20 -16
-9 -21 -43 -55 -43 -41 0 5 -5 7 -10 4 -6 -4 -10 -15 -8 -25 3 -17 -27 -60
-42 -60 -4 0 -10 9 -13 21 -5 18 -9 19 -27 9 -26 -14 -37 -6 -20 15 14 16 6
50 -10 40 -5 -3 -15 5 -21 18 -7 16 -17 23 -29 20 -12 -3 -19 3 -22 21 -4 21
-1 27 18 32 13 3 24 10 24 15 0 11 14 12 24 2z m266 -23 c0 -5 -4 -10 -10 -10
-5 0 -10 5 -10 10 0 6 5 10 10 10 6 0 10 -4 10 -10z m30 -20 c0 -5 -2 -10 -4
-10 -3 0 -8 5 -11 10 -3 6 -1 10 4 10 6 0 11 -4 11 -10z m569 -176 c12 -19 17
-33 12 -30 -5 3 -18 22 -30 42 -12 19 -17 33 -12 30 5 -3 18 -22 30 -42z
m-1135 -88 c-3 -9 -2 -16 4 -16 6 0 8 -8 5 -18 -4 -18 27 -62 44 -62 6 0 18
-9 28 -20 17 -18 17 -20 2 -14 -13 4 -17 1 -17 -14 0 -12 5 -24 10 -27 6 -3
10 -1 10 6 0 8 4 8 15 -1 21 -17 19 -49 -2 -49 -46 -2 -59 -6 -71 -23 -11 -15
-17 -16 -34 -7 -19 10 -20 9 -15 -12 3 -14 0 -32 -8 -43 -8 -10 -12 -23 -8
-29 3 -5 0 -8 -6 -6 -7 3 -12 8 -11 13 1 5 -4 12 -11 17 -22 13 -39 297 -23
376 l6 30 44 -42 c29 -29 42 -49 38 -59z m453 88 c-3 -3 -12 -4 -19 -1 -8 3
-5 6 6 6 11 1 17 -2 13 -5z m948 -124 c3 -5 2 -10 -4 -10 -5 0 -13 5 -16 10
-3 6 -2 10 4 10 5 0 13 -4 16 -10z m-955 -29 c0 -6 -4 -13 -10 -16 -5 -3 -10
1 -10 9 0 9 5 16 10 16 6 0 10 -4 10 -9z m-87 -26 c-3 -9 -8 -14 -10 -11 -3 3
-2 9 2 15 9 16 15 13 8 -4z m-217 -62 c-10 -10 -19 5 -10 18 6 11 8 11 12 0 2
-7 1 -15 -2 -18z m-53 -98 c-6 -18 -34 -16 -41 3 -2 7 6 12 22 12 19 0 24 -4
19 -15z m-43 -25 c0 -5 -2 -10 -4 -10 -3 0 -8 5 -11 10 -3 6 -1 10 4 10 6 0
11 -4 11 -10z m37 -16 c-3 -3 -12 -4 -19 -1 -8 3 -5 6 6 6 11 1 17 -2 13 -5z"/>
<path d="M2845 1810 c3 -5 8 -10 11 -10 2 0 4 5 4 10 0 6 -5 10 -11 10 -5 0
-7 -4 -4 -10z"/>
<path d="M3998 2983 c-14 -27 -6 -59 19 -70 32 -16 73 -17 73 -3 0 6 -5 10
-11 10 -6 0 -8 8 -4 19 3 10 0 23 -7 29 -18 15 -65 25 -70 15z"/>
<path d="M4115 2920 c-4 -6 -1 -17 5 -25 10 -12 9 -15 -6 -16 -11 0 -14 -3 -7
-5 7 -3 22 0 35 7 13 6 20 8 16 4 -12 -13 12 -35 37 -35 13 0 27 -10 36 -27
12 -23 55 -73 62 -73 2 0 0 21 -3 48 -3 31 -10 47 -19 47 -8 0 -17 9 -22 20
-4 11 -8 14 -8 6 -1 -17 -16 -5 -16 12 0 13 -61 46 -87 47 -9 0 -20 -5 -23
-10z"/>
<path d="M4267 2924 c-12 -12 -8 -41 8 -54 12 -10 15 -10 16 1 3 36 -11 66
-24 53z"/>
<path d="M4326 2884 c-8 -21 -8 -24 3 -24 12 0 22 28 12 35 -5 3 -12 -2 -15
-11z"/>
<path d="M4250 2730 c0 -5 5 -10 10 -10 6 0 10 5 10 10 0 6 -4 10 -10 10 -5 0
-10 -4 -10 -10z"/>
<path d="M2385 2680 c-3 -5 -1 -10 4 -10 6 0 11 5 11 10 0 6 -2 10 -4 10 -3 0
-8 -4 -11 -10z"/>
<path d="M4040 2680 c0 -5 5 -10 10 -10 6 0 10 5 10 10 0 6 -4 10 -10 10 -5 0
-10 -4 -10 -10z"/>
<path d="M2390 2650 c-12 -8 -11 -10 8 -11 12 -1 27 -2 34 -3 6 -1 13 5 16 12
4 14 -36 16 -58 2z"/>
<path d="M2397 2583 c-4 -3 -7 -11 -7 -17 0 -6 5 -5 12 2 6 6 9 14 7 17 -3 3
-9 2 -12 -2z"/>
<path d="M2385 2541 c-3 -5 -1 -12 5 -16 5 -3 10 1 10 9 0 18 -6 21 -15 7z"/>
<path d="M2860 2340 c0 -5 5 -10 10 -10 6 0 10 5 10 10 0 6 -4 10 -10 10 -5 0
-10 -4 -10 -10z"/>
<path d="M3780 2331 c0 -5 7 -11 14 -14 10 -4 13 -1 9 9 -6 15 -23 19 -23 5z"/>
<path d="M2075 2110 c-3 -5 -1 -10 4 -10 6 0 11 5 11 10 0 6 -2 10 -4 10 -3 0
-8 -4 -11 -10z"/>
<path d="M2141 2094 c0 -11 3 -14 6 -6 3 7 2 16 -1 19 -3 4 -6 -2 -5 -13z"/>
<path d="M2105 2079 c-4 -6 -5 -12 -2 -15 2 -3 7 2 10 11 7 17 1 20 -8 4z"/>
<path d="M2166 1923 c-6 -14 -5 -15 5 -6 7 7 10 15 7 18 -3 3 -9 -2 -12 -12z"/>
<path d="M5595 1875 c-22 -8 -78 -19 -124 -25 -47 -5 -89 -14 -94 -19 -6 -6 5
-6 29 -1 22 5 64 10 95 13 31 2 63 8 70 13 8 5 43 14 79 20 55 10 59 12 25 13
-22 0 -58 -6 -80 -14z"/>
<path d="M5830 1850 c-12 -8 -10 -10 8 -10 13 0 20 4 17 10 -7 12 -6 12 -25 0z"/>
<path d="M6038 1853 c7 -3 16 -2 19 1 4 3 -2 6 -13 5 -11 0 -14 -3 -6 -6z"/>
<path d="M5109 1773 c-13 -16 -12 -17 4 -4 16 13 21 21 13 21 -2 0 -10 -8 -17
-17z"/>
<path d="M4449 1739 c-4 -21 -12 -142 -10 -169 1 -19 2 -57 4 -85 3 -71 -12
-235 -24 -257 -6 -10 -7 -23 -4 -28 7 -12 -21 -178 -33 -194 -5 -6 -14 -30
-20 -52 -7 -23 -19 -44 -27 -48 -10 -4 -14 -18 -13 -49 2 -47 -13 -72 -47 -78
-17 -4 -18 -6 -4 -18 18 -17 14 -65 -7 -82 -8 -6 -14 -18 -14 -25 0 -8 -7 -14
-15 -14 -18 0 -19 -5 -3 -30 7 -10 9 -22 5 -26 -11 -12 -29 11 -30 40 -1 17
-7 24 -15 21 -8 -3 -16 -5 -18 -5 -13 0 -1 -32 16 -42 19 -12 28 -38 13 -38
-5 0 -7 -20 -6 -45 1 -44 -12 -60 -23 -30 -5 12 -8 12 -20 0 -8 -7 -14 -21
-14 -30 0 -8 -7 -27 -16 -40 -9 -14 -13 -32 -10 -42 6 -14 9 -15 15 -4 10 16
31 6 31 -14 0 -7 6 -16 13 -18 8 -4 8 -8 2 -14 -6 -4 -17 -21 -25 -38 -8 -16
-22 -36 -30 -43 -8 -8 -10 -11 -3 -8 7 4 9 -1 6 -15 -5 -19 -8 -20 -17 -6 -8
10 -21 13 -39 10 -15 -3 -27 -1 -27 5 0 5 -11 12 -25 14 -26 5 -55 -17 -55
-44 0 -26 11 -27 36 -2 19 20 28 23 43 14 28 -14 25 -113 -3 -118 -13 -3 -15
-6 -7 -11 14 -9 -23 -61 -42 -61 -8 0 -9 3 -1 8 16 10 24 51 12 59 -7 3 -8 1
-4 -5 4 -7 4 -12 -1 -12 -17 0 -28 16 -31 44 -3 25 -1 28 12 17 19 -16 61 -10
61 8 0 7 -10 18 -23 22 -15 6 -21 5 -17 -1 8 -13 -11 -13 -37 1 -11 6 -18 7
-15 2 4 -6 -5 -16 -19 -23 -14 -8 -22 -20 -19 -27 2 -8 -6 -25 -20 -37 -14
-13 -25 -31 -25 -40 0 -9 -6 -16 -14 -16 -8 0 -18 -4 -21 -10 -4 -6 34 -10
104 -9 l110 0 65 131 c36 72 63 135 60 140 -4 6 -1 14 6 18 7 5 25 30 40 57
17 30 34 48 46 49 10 1 24 2 30 3 16 2 60 88 50 98 -5 4 -11 3 -13 -4 -9 -24
-43 10 -43 42 0 38 16 55 51 55 24 0 27 3 24 28 -2 15 -4 28 -4 30 -1 1 -11
-2 -23 -8 -20 -9 -21 -9 -7 2 9 7 16 20 17 28 8 79 26 171 42 218 10 31 21 82
25 112 3 30 13 75 20 100 8 25 19 90 25 144 6 55 13 102 15 104 3 3 8 -4 12
-16 7 -18 10 -19 26 -7 17 12 17 15 3 43 -9 17 -21 32 -27 34 -12 4 -19 111
-8 122 7 7 82 -16 90 -28 4 -5 14 -6 22 -3 8 3 18 2 23 -3 5 -4 33 -13 63 -19
52 -11 56 -11 78 13 12 13 32 28 45 32 38 12 49 29 27 42 -10 7 -19 17 -19 22
0 13 100 13 119 1 14 -9 47 1 61 18 3 3 21 15 41 25 36 19 69 61 69 88 0 7 -7
-1 -16 -18 -11 -23 -33 -39 -82 -62 -59 -27 -77 -31 -144 -29 -66 2 -81 -1
-107 -21 -17 -13 -35 -20 -40 -18 -5 3 -11 0 -14 -8 -3 -8 -16 -16 -29 -19
-21 -4 -21 -4 4 -6 30 -1 49 -21 21 -21 -11 0 -24 -5 -31 -12 -9 -9 -17 -5
-37 16 -29 31 -31 38 -10 30 8 -4 15 -2 15 4 0 10 -77 52 -96 52 -27 1 -53 38
-60 85 -5 43 -12 68 -15 54z m-269 -1309 c15 -28 -8 -55 -28 -33 -8 7 -8 13
-2 13 5 0 10 9 10 20 0 25 6 25 20 0z m-93 -242 c-3 -8 -6 -5 -6 6 -1 11 2 17
5 13 3 -3 4 -12 1 -19z"/>
<path d="M5540 1614 c0 -3 6 -12 14 -19 17 -17 30 -7 15 12 -12 13 -29 18 -29
7z"/>
<path d="M5302 1583 l-23 -25 21 -15 c16 -11 19 -18 10 -23 -9 -6 -3 -13 18
-24 42 -22 46 -21 59 15 10 25 16 29 32 24 12 -3 21 -2 21 3 0 5 10 13 23 16
21 6 21 7 4 17 -10 6 -28 8 -39 5 -13 -3 -31 3 -46 15 -32 25 -52 23 -80 -8z"/>
<path d="M4978 1583 c-10 -2 -18 -9 -18 -14 0 -5 -5 -8 -11 -6 -6 1 -14 -4
-16 -10 -8 -21 20 -14 52 12 29 24 28 27 -7 18z"/>
<path d="M5545 1560 c3 -5 8 -10 11 -10 2 0 4 5 4 10 0 6 -5 10 -11 10 -5 0
-7 -4 -4 -10z"/>
<path d="M5520 1486 c0 -8 -3 -21 -6 -30 -4 -11 -1 -16 10 -16 9 0 16 3 16 8
0 4 3 17 6 30 5 16 2 22 -10 22 -9 0 -16 -6 -16 -14z"/>
<path d="M5390 1470 c0 -5 5 -10 11 -10 5 0 7 5 4 10 -3 6 -8 10 -11 10 -2 0
-4 -4 -4 -10z"/>
<path d="M6352 1430 c-48 -51 -71 -90 -119 -205 -52 -123 -134 -388 -148 -476
-5 -33 -48 -79 -74 -79 -14 0 -22 -16 -28 -53 -3 -18 -13 -48 -23 -67 -28 -55
-49 -130 -55 -195 -8 -90 -14 -326 -8 -341 4 -10 24 -14 68 -14 l64 0 5 53 c3
28 8 88 10 132 23 337 34 410 100 655 52 195 104 312 188 427 21 29 38 55 38
59 0 4 7 12 16 18 11 9 14 26 12 71 l-3 60 -43 -45z m-292 -805 c0 -8 -4 -15
-10 -15 -5 0 -10 7 -10 15 0 8 5 15 10 15 6 0 10 -7 10 -15z m-18 -50 c3 -14
1 -28 -4 -31 -5 -3 -6 -14 -3 -25 4 -10 -1 -56 -11 -101 -9 -46 -16 -100 -15
-120 0 -21 -3 -38 -8 -38 -4 0 -6 -11 -3 -25 2 -14 -1 -47 -8 -73 -20 -77 -19
-77 -32 -64 -8 8 -8 15 1 26 7 9 9 21 5 28 -11 18 -5 320 7 334 5 6 7 19 3 28
-3 9 -1 16 5 16 6 0 11 13 11 28 0 33 7 42 31 42 10 0 19 -10 21 -25z"/>
<path d="M4835 1450 c-4 -6 3 -10 14 -10 25 0 27 6 6 13 -8 4 -17 2 -20 -3z"/>
<path d="M1830 1430 c34 -11 60 -11 35 0 -11 5 -29 8 -40 8 -16 0 -15 -2 5 -8z"/>
<path d="M5430 1420 c0 -5 5 -10 11 -10 5 0 7 5 4 10 -3 6 -8 10 -11 10 -2 0
-4 -4 -4 -10z"/>
<path d="M2253 1130 c0 -41 2 -58 4 -37 2 20 2 54 0 75 -2 20 -4 3 -4 -38z"/>
<path d="M5425 1120 c-3 -5 -1 -10 4 -10 6 0 11 5 11 10 0 6 -2 10 -4 10 -3 0
-8 -4 -11 -10z"/>
<path d="M2100 1110 c-8 -4 -30 -14 -47 -20 -18 -7 -33 -17 -33 -22 0 -5 -16
-23 -36 -40 -34 -30 -60 -75 -50 -86 11 -10 56 9 56 24 0 13 3 14 14 5 11 -9
20 -7 40 12 14 13 26 29 26 36 0 14 61 70 76 71 7 0 14 7 18 15 4 11 -2 15
-22 14 -15 0 -34 -4 -42 -9z"/>
<path d="M5386 1104 c-8 -21 -8 -21 9 -21 8 0 15 6 15 13 0 20 -17 26 -24 8z"/>
<path d="M2257 855 c3 -88 6 -190 7 -227 1 -62 7 -81 19 -60 2 4 1 0 -2 -8 -9
-25 -8 -130 1 -136 15 -9 -1 -22 -21 -17 -10 3 -22 0 -25 -6 -4 -6 -1 -9 6 -6
7 2 21 -7 31 -21 16 -21 17 -27 5 -41 -19 -23 -18 -125 1 -140 13 -10 13 -14
3 -21 -19 -13 12 -36 35 -28 14 6 15 9 4 16 -11 6 -8 9 10 12 32 4 40 47 10
55 -17 4 -19 8 -10 19 17 21 27 17 65 -22 37 -40 41 -49 22 -58 -7 -3 -4 -4 6
-3 13 1 22 -8 30 -31 6 -18 16 -36 21 -40 6 -4 23 -26 38 -50 19 -29 34 -42
50 -42 20 1 20 2 5 11 -10 5 -18 14 -18 20 0 5 -9 19 -19 30 -25 27 -101 179
-101 202 0 10 -7 20 -15 23 -8 4 -15 17 -15 29 0 13 -5 27 -11 31 -7 4 -9 21
-5 46 4 26 3 37 -4 33 -13 -8 -30 37 -30 79 0 17 -5 37 -12 44 -7 7 -8 12 -3
12 5 0 2 6 -7 13 -22 17 -57 182 -68 322 -8 116 -8 115 -3 -40z"/>
<path d="M5314 992 c-9 -7 -17 -52 -9 -52 8 0 45 34 45 41 0 10 -26 18 -36 11z"/>
<path d="M5340 946 c0 -21 21 -31 30 -15 5 7 6 17 4 21 -9 14 -34 9 -34 -6z"/>
<path d="M5306 905 c-3 -9 -10 -13 -16 -10 -5 3 -10 -3 -10 -14 0 -12 -7 -21
-15 -21 -22 0 -18 -17 5 -23 11 -3 20 -13 20 -24 0 -14 -2 -15 -9 -4 -8 12
-13 12 -40 0 -19 -9 -29 -19 -26 -27 3 -8 5 -18 5 -23 0 -5 6 -9 13 -9 20 -1
59 -39 54 -52 -4 -10 -6 -10 -6 0 -1 7 -14 12 -32 12 -23 0 -32 -5 -36 -21 -3
-11 -9 -16 -12 -11 -8 13 -72 19 -89 8 -16 -10 -16 -46 1 -46 8 0 8 -3 -2 -9
-12 -8 -12 -12 -2 -25 17 -21 50 -20 73 1 14 13 18 13 18 2 0 -14 49 -43 58
-34 3 3 0 17 -7 31 -14 31 -8 42 14 24 15 -12 21 -4 16 24 -1 5 5 16 12 25 8
9 17 30 20 46 3 17 13 55 22 85 8 30 14 66 13 80 -3 28 -32 39 -42 15z m-129
-241 c-3 -3 -12 -4 -19 -1 -8 3 -5 6 6 6 11 1 17 -2 13 -5z"/>
<path d="M5116 725 c4 -8 11 -15 16 -15 6 0 5 6 -2 15 -7 8 -14 15 -16 15 -2
0 -1 -7 2 -15z"/>
<path d="M4930 680 c0 -5 5 -10 10 -10 6 0 10 5 10 10 0 6 -4 10 -10 10 -5 0
-10 -4 -10 -10z"/>
<path d="M4930 639 c0 -5 5 -7 10 -4 6 3 10 8 10 11 0 2 -4 4 -10 4 -5 0 -10
-5 -10 -11z"/>
<path d="M4956 627 c-9 -33 -7 -44 4 -27 6 10 10 11 10 3 0 -7 4 -13 9 -13 10
0 2 48 -9 55 -4 3 -10 -5 -14 -18z"/>
<path d="M5120 564 c0 -8 5 -12 10 -9 6 3 10 10 10 16 0 5 -4 9 -10 9 -5 0
-10 -7 -10 -16z"/>
<path d="M5142 518 c6 -18 28 -21 28 -4 0 9 -7 16 -16 16 -9 0 -14 -5 -12 -12z"/>
<path d="M4765 500 c-10 -12 -25 -18 -32 -16 -9 4 -13 -3 -13 -20 0 -22 -2
-23 -20 -14 -17 9 -22 7 -30 -15 -5 -14 -14 -25 -20 -25 -5 0 -10 -5 -10 -11
0 -5 4 -8 9 -4 14 8 29 -23 23 -51 -4 -23 -5 -23 -18 -7 -7 10 -14 13 -14 7 0
-6 -14 -14 -31 -18 -27 -5 -30 -8 -19 -21 10 -13 9 -15 -9 -15 -14 0 -20 -6
-19 -17 1 -10 0 -29 -1 -43 -2 -24 -3 -23 -16 8 -17 39 -31 35 -40 -11 -4 -17
-12 -37 -17 -44 -5 -7 -7 -17 -3 -23 3 -5 -2 -10 -13 -10 -21 0 -92 -62 -92
-80 0 -10 -42 -32 -65 -34 -5 -1 -10 -8 -10 -16 0 -12 23 -15 137 -18 135 -3
137 -2 141 20 l4 23 8 -22 c9 -27 20 -30 29 -7 9 25 7 34 -8 34 -15 0 -48 55
-38 64 3 3 15 6 27 6 11 0 26 5 33 12 7 7 12 8 12 3 0 -6 6 1 13 15 10 19 25
27 68 36 67 13 79 20 78 42 0 11 -3 12 -6 5 -6 -15 -43 -17 -43 -3 0 6 7 10
15 10 9 0 19 10 24 23 5 12 10 20 12 18 8 -8 47 10 53 24 4 10 -1 15 -14 15
-11 0 -20 -4 -20 -10 0 -30 -90 8 -90 39 0 9 -7 25 -15 35 -15 19 -15 19 -15
-2 0 -12 -5 -22 -11 -22 -16 0 -7 31 13 44 13 8 21 6 36 -7 14 -13 21 -14 30
-5 16 16 15 43 -3 58 -16 13 -10 34 6 24 10 -6 38 23 39 39 0 15 -38 6 -55
-13z m-205 -450 c0 -31 -16 -41 -26 -15 -8 19 2 45 16 45 5 0 10 -13 10 -30z"/>
<path d="M5230 510 c0 -5 5 -10 10 -10 6 0 10 5 10 10 0 6 -4 10 -10 10 -5 0
-10 -4 -10 -10z"/>
<path d="M5025 501 c-9 -16 9 -20 23 -5 10 12 10 14 -2 14 -8 0 -17 -4 -21 -9z"/>
<path d="M5130 465 c-21 -25 -1 -31 23 -7 17 18 18 22 5 22 -8 0 -21 -7 -28
-15z"/>
<path d="M1905 447 c-4 -10 -5 -21 -1 -24 10 -10 18 4 13 24 -4 17 -4 17 -12
0z"/>
<path d="M4800 420 c0 -16 5 -30 10 -30 6 0 10 14 10 30 0 17 -4 30 -10 30 -5
0 -10 -13 -10 -30z"/>
<path d="M5184 426 c-8 -22 3 -33 18 -18 9 9 9 15 0 24 -9 9 -13 7 -18 -6z"/>
<path d="M1838 408 c-7 -18 1 -38 15 -38 8 0 8 3 0 11 -6 6 -9 18 -6 25 3 8 3
14 0 14 -3 0 -7 -6 -9 -12z"/>
<path d="M5064 404 c3 -9 6 -20 6 -25 0 -5 7 -9 15 -9 19 0 19 17 1 36 -19 19
-30 18 -22 -2z"/>
<path d="M4937 402 c-3 -4 4 -18 16 -32 15 -18 18 -20 13 -6 -3 10 -1 25 5 32
9 11 7 14 -9 14 -12 0 -23 -3 -25 -8z"/>
<path d="M421 370 c-1 -19 -5 -44 -7 -55 -3 -11 -6 -46 -7 -78 -2 -37 -8 -62
-17 -68 -12 -8 -10 -10 8 -6 23 5 22 -3 -6 -35 -12 -14 -12 -18 -2 -18 11 0
11 -3 2 -12 -7 -7 -12 -21 -12 -33 -1 -18 -24 27 -61 118 -6 15 -17 27 -25 27
-16 0 -19 -16 -5 -24 5 -3 11 -23 14 -43 3 -21 9 -55 15 -76 8 -30 7 -36 -2
-28 -15 13 -26 4 -26 -21 0 -16 9 -18 64 -18 l64 0 7 83 c3 45 5 136 3 202 -2
66 -5 104 -7 85z"/>
<path d="M4874 359 c-8 -14 11 -33 25 -25 6 4 11 11 11 16 0 13 -29 20 -36 9z"/>
<path d="M4800 340 c0 -5 5 -10 10 -10 6 0 10 5 10 10 0 6 -4 10 -10 10 -5 0
-10 -4 -10 -10z"/>
<path d="M6130 339 c0 -5 5 -7 10 -4 6 3 10 8 10 11 0 2 -4 4 -10 4 -5 0 -10
-5 -10 -11z"/>
<path d="M5047 310 c-3 -13 0 -20 9 -20 8 0 14 9 14 20 0 11 -4 20 -9 20 -5 0
-11 -9 -14 -20z"/>
<path d="M4895 310 c-3 -5 3 -10 15 -10 12 0 18 5 15 10 -3 6 -10 10 -15 10
-5 0 -12 -4 -15 -10z"/>
<path d="M5110 309 c0 -5 5 -7 10 -4 6 3 10 8 10 11 0 2 -4 4 -10 4 -5 0 -10
-5 -10 -11z"/>
<path d="M6127 313 c-4 -3 -7 -19 -7 -35 0 -16 -6 -36 -14 -43 -7 -8 -19 -45
-26 -82 -7 -37 -16 -70 -20 -73 -13 -9 -22 -80 -10 -80 5 0 10 9 10 19 0 11 4
22 9 26 5 3 12 20 16 38 4 17 20 61 37 96 34 75 46 141 25 141 -7 0 -17 -3
-20 -7z"/>
<path d="M6317 304 c5 -14 2 -16 -20 -10 -20 5 -27 3 -27 -9 0 -8 -7 -15 -16
-15 -10 0 -14 -6 -10 -15 4 -10 -1 -15 -17 -16 -21 0 -21 -1 -2 -9 19 -9 19
-9 -3 -16 -18 -5 -20 -9 -10 -15 10 -7 10 -9 -2 -9 -19 0 -50 -35 -50 -55 0
-8 -11 -34 -25 -59 -38 -67 -34 -76 28 -76 43 0 55 4 67 23 7 12 14 29 15 37
1 8 2 25 3 37 1 12 17 38 36 57 33 36 50 83 40 110 -3 8 3 16 15 19 26 6 18
37 -10 37 -13 0 -17 -5 -12 -16z"/>
<path d="M4942 298 c2 -6 10 -14 16 -16 7 -2 10 2 6 12 -7 18 -28 22 -22 4z"/>
<path d="M5025 270 c3 -5 8 -10 11 -10 2 0 4 5 4 10 0 6 -5 10 -11 10 -5 0 -7
-4 -4 -10z"/>
<path d="M670 173 c0 -14 19 -38 25 -32 8 8 -5 39 -16 39 -5 0 -9 -3 -9 -7z"/>
<path d="M4815 170 c-3 -5 1 -10 9 -10 9 0 16 5 16 10 0 6 -4 10 -9 10 -6 0
-13 -4 -16 -10z"/>
<path d="M5050 138 c1 -21 2 -21 13 -7 7 9 21 19 32 22 13 3 9 5 -12 6 -28 1
-33 -2 -33 -21z"/>
<path d="M2390 131 c0 -6 5 -13 10 -16 6 -3 10 1 10 9 0 9 -4 16 -10 16 -5 0
-10 -4 -10 -9z"/>
<path d="M673 108 c-4 -7 -8 -24 -9 -38 -1 -14 -5 -35 -9 -47 -7 -21 -4 -23
34 -23 l41 0 -7 48 c-6 46 -18 72 -34 72 -4 0 -11 -6 -16 -12z"/>
<path d="M2423 108 c-21 -28 -24 -38 -9 -32 14 5 30 33 23 41 -2 2 -9 -2 -14
-9z"/>
<path d="M4728 50 c-16 -15 -16 -17 2 -33 11 -9 33 -16 48 -16 17 1 20 3 10 6
-22 5 -24 43 -3 43 8 0 15 -6 15 -14 0 -8 11 -17 24 -20 13 -3 31 -9 40 -12
31 -12 16 14 -21 37 -46 27 -92 31 -115 9z"/>
<path d="M6340 52 c-46 -51 -46 -52 9 -52 l51 0 0 35 c0 30 -3 35 -22 34 -13
0 -30 -8 -38 -17z"/>
<path d="M250 25 c0 -16 6 -25 16 -25 11 0 14 5 10 16 -3 9 -6 20 -6 25 0 5
-4 9 -10 9 -5 0 -10 -11 -10 -25z"/>
<path d="M4640 15 c0 -10 10 -15 30 -15 20 0 30 5 30 15 0 10 -10 15 -30 15
-20 0 -30 -5 -30 -15z"/>
</g>
</svg>
