<?xml version="1.0" standalone="no"?>
<!DOCTYPE svg PUBLIC "-//W3C//DTD SVG 20010904//EN"
 "http://www.w3.org/TR/2001/REC-SVG-20010904/DTD/svg10.dtd">
<svg version="1.0" xmlns="http://www.w3.org/2000/svg"
 width="512.000000pt" height="512.000000pt" viewBox="0 0 512.000000 512.000000"
 preserveAspectRatio="xMidYMid meet">

<g transform="translate(0.000000,512.000000) scale(0.100000,-0.100000)"
fill="#000000" stroke="none">
<path d="M3358 5104 c-200 -48 -364 -224 -398 -426 -44 -261 119 -516 379
-592 69 -20 199 -21 276 -1 124 32 255 136 322 255 51 89 66 157 61 279 -3
100 -5 111 -45 193 -110 230 -355 351 -595 292z"/>
<path d="M1829 4081 c-623 -92 -804 -122 -830 -137 -41 -24 -76 -74 -85 -121
-14 -76 44 -173 117 -195 30 -9 191 -9 682 0 353 6 643 10 644 9 1 -1 -117
-310 -261 -687 l-262 -685 -309 -450 c-170 -247 -320 -470 -333 -493 -72 -128
15 -293 163 -309 95 -11 105 -4 532 415 216 211 393 379 393 373 0 -7 -34
-128 -75 -269 -64 -218 -81 -266 -115 -316 -367 -534 -620 -918 -630 -955 -28
-104 34 -214 139 -250 68 -22 142 -7 198 42 58 51 806 935 829 980 12 23 198
485 414 1027 216 542 396 988 399 993 4 4 46 -88 94 -203 l87 -211 79 -428
c44 -236 86 -442 95 -458 8 -16 33 -46 55 -66 88 -80 206 -75 292 12 80 80 80
74 9 607 l-60 459 -161 483 -161 484 -60 44 c-171 126 -835 391 -1043 417 -24
3 -356 -42 -836 -112z"/>
<path d="M3357 1044 c-400 -97 -543 -590 -255 -883 94 -95 212 -149 348 -158
233 -16 453 136 531 364 33 95 33 231 0 326 -89 262 -361 415 -624 351z m187
-104 c33 -5 64 -14 69 -19 5 -5 0 -25 -15 -50 l-23 -41 -97 0 -97 0 -21 38
c-11 20 -21 42 -21 47 0 10 83 32 126 34 11 0 47 -3 79 -9z m-391 -330 l46
-80 -46 -80 c-25 -44 -49 -80 -53 -80 -18 0 -34 79 -34 160 0 81 16 160 34
160 4 0 28 -36 53 -80z m465 5 c23 -41 42 -79 42 -85 0 -6 -19 -44 -42 -85
l-43 -74 -96 -1 -97 0 -45 80 -46 80 46 80 45 80 97 0 96 -1 43 -74z m263 23
c7 -29 12 -78 12 -108 0 -62 -21 -160 -34 -160 -8 0 -99 147 -99 160 0 13 91
160 99 160 5 0 15 -24 22 -52z m-283 -449 c15 -25 20 -45 15 -50 -20 -20 -135
-30 -205 -19 -37 7 -70 15 -72 18 -2 4 7 26 21 50 l25 42 97 0 96 0 23 -41z"/>
</g>
</svg>
